<mxfile host="app.diagrams.net" modified="2023-07-19T01:07:07.522Z" agent="Mozilla/5.0 (Windows NT 10.0; Win64; x64) AppleWebKit/537.36 (KHTML, like Gecko) Chrome/114.0.0.0 Safari/537.36" version="21.6.2" etag="2-pxGQmjX4mVI_W7KGgI" type="github">
  <diagram name="Page-1" id="QtXqHNm_sxjCZQVUWbkT">
    <mxGraphModel>
      <root>
        <mxCell id="0" />
        <mxCell id="1" parent="0" />
      </root>
    </mxGraphModel>
  </diagram>
</mxfile>
